<svg xmlns="http://www.w3.org/2000/svg" xmlns:xlink="http://www.w3.org/1999/xlink" width="512" zoomAndPan="magnify" viewBox="0 0 384 383.999986" height="512" preserveAspectRatio="xMidYMid meet" version="1.0"><defs><clipPath id="2cafcd76bb"><path d="M 80.226562 16.355469 L 303.726562 16.355469 L 303.726562 283 L 80.226562 283 Z M 80.226562 16.355469 " clip-rule="nonzero"/></clipPath><clipPath id="6e3246a072"><path d="M 144 303 L 208 303 L 208 367.355469 L 144 367.355469 Z M 144 303 " clip-rule="nonzero"/></clipPath></defs><g clip-path="url(#2cafcd76bb)"><path fill="#180cff" d="M 176.03125 282.476562 C 158.394531 282.476562 144.097656 268.179688 144.097656 250.542969 L 144.097656 207.960938 C 144.097656 190.324219 158.394531 176.027344 176.03125 176.027344 C 182.449219 175.964844 239.902344 165.382812 239.902344 122.804688 C 239.902344 101.511719 218.609375 80.222656 186.675781 80.222656 C 160.691406 80.222656 144.097656 101.511719 144.097656 112.15625 C 144.097656 129.796875 129.800781 144.09375 112.160156 144.09375 C 94.523438 144.09375 80.226562 129.796875 80.226562 112.15625 C 80.226562 60.230469 128.980469 16.355469 186.675781 16.355469 C 271.835938 16.355469 303.769531 80.03125 303.769531 133.449219 C 303.769531 177.570312 279.53125 211.292969 235.503906 228.398438 C 225.925781 232.136719 216.449219 234.648438 207.964844 236.351562 L 207.964844 250.542969 C 207.964844 268.179688 193.671875 282.476562 176.03125 282.476562 Z M 176.03125 282.476562 " fill-opacity="1" fill-rule="nonzero"/></g><g clip-path="url(#6e3246a072)"><path fill="#180cff" d="M 207.964844 335.699219 C 207.964844 336.746094 207.914062 337.789062 207.8125 338.832031 C 207.710938 339.871094 207.554688 340.90625 207.351562 341.929688 C 207.148438 342.957031 206.894531 343.96875 206.589844 344.96875 C 206.289062 345.972656 205.933594 346.957031 205.535156 347.921875 C 205.136719 348.886719 204.6875 349.832031 204.195312 350.753906 C 203.703125 351.675781 203.164062 352.574219 202.585938 353.441406 C 202.003906 354.3125 201.378906 355.152344 200.71875 355.960938 C 200.054688 356.769531 199.351562 357.542969 198.613281 358.28125 C 197.871094 359.019531 197.097656 359.722656 196.289062 360.386719 C 195.480469 361.050781 194.644531 361.671875 193.773438 362.253906 C 192.902344 362.835938 192.007812 363.371094 191.085938 363.863281 C 190.164062 364.359375 189.21875 364.804688 188.253906 365.203125 C 187.285156 365.605469 186.300781 365.957031 185.300781 366.261719 C 184.300781 366.5625 183.289062 366.816406 182.261719 367.023438 C 181.234375 367.226562 180.203125 367.378906 179.160156 367.480469 C 178.121094 367.582031 177.078125 367.636719 176.03125 367.636719 C 174.984375 367.636719 173.941406 367.582031 172.902344 367.480469 C 171.859375 367.378906 170.828125 367.226562 169.800781 367.023438 C 168.777344 366.816406 167.761719 366.5625 166.761719 366.261719 C 165.761719 365.957031 164.777344 365.605469 163.808594 365.203125 C 162.84375 364.804688 161.898438 364.359375 160.976562 363.863281 C 160.054688 363.371094 159.160156 362.835938 158.289062 362.253906 C 157.417969 361.671875 156.582031 361.050781 155.773438 360.386719 C 154.964844 359.722656 154.191406 359.019531 153.449219 358.28125 C 152.710938 357.542969 152.007812 356.769531 151.34375 355.960938 C 150.683594 355.152344 150.058594 354.3125 149.480469 353.441406 C 148.898438 352.574219 148.359375 351.675781 147.867188 350.753906 C 147.375 349.832031 146.929688 348.886719 146.527344 347.921875 C 146.128906 346.957031 145.777344 345.972656 145.472656 344.96875 C 145.167969 343.96875 144.914062 342.957031 144.710938 341.929688 C 144.507812 340.90625 144.351562 339.871094 144.25 338.832031 C 144.148438 337.789062 144.097656 336.746094 144.097656 335.699219 C 144.097656 334.65625 144.148438 333.609375 144.25 332.570312 C 144.351562 331.53125 144.507812 330.496094 144.710938 329.46875 C 144.914062 328.445312 145.167969 327.429688 145.472656 326.429688 C 145.777344 325.429688 146.128906 324.445312 146.527344 323.480469 C 146.929688 322.511719 147.375 321.570312 147.867188 320.648438 C 148.359375 319.722656 148.898438 318.828125 149.480469 317.957031 C 150.058594 317.089844 150.683594 316.25 151.34375 315.441406 C 152.007812 314.632812 152.710938 313.859375 153.449219 313.121094 C 154.191406 312.378906 154.964844 311.679688 155.773438 311.015625 C 156.582031 310.351562 157.417969 309.730469 158.289062 309.148438 C 159.160156 308.566406 160.054688 308.03125 160.976562 307.535156 C 161.898438 307.042969 162.84375 306.597656 163.808594 306.195312 C 164.777344 305.796875 165.761719 305.445312 166.761719 305.140625 C 167.761719 304.835938 168.777344 304.582031 169.800781 304.378906 C 170.828125 304.175781 171.859375 304.023438 172.902344 303.917969 C 173.941406 303.816406 174.984375 303.765625 176.03125 303.765625 C 177.078125 303.765625 178.121094 303.816406 179.160156 303.917969 C 180.203125 304.023438 181.234375 304.175781 182.261719 304.378906 C 183.289062 304.582031 184.300781 304.835938 185.300781 305.140625 C 186.300781 305.445312 187.285156 305.796875 188.253906 306.195312 C 189.21875 306.597656 190.164062 307.042969 191.085938 307.535156 C 192.007812 308.03125 192.902344 308.566406 193.773438 309.148438 C 194.644531 309.730469 195.480469 310.351562 196.289062 311.015625 C 197.097656 311.679688 197.871094 312.378906 198.613281 313.121094 C 199.351562 313.859375 200.054688 314.632812 200.71875 315.441406 C 201.378906 316.25 202.003906 317.089844 202.585938 317.957031 C 203.164062 318.828125 203.703125 319.722656 204.195312 320.648438 C 204.6875 321.570312 205.136719 322.511719 205.535156 323.480469 C 205.933594 324.445312 206.289062 325.429688 206.589844 326.429688 C 206.894531 327.429688 207.148438 328.445312 207.351562 329.46875 C 207.554688 330.496094 207.710938 331.53125 207.8125 332.570312 C 207.914062 333.609375 207.964844 334.65625 207.964844 335.699219 Z M 207.964844 335.699219 " fill-opacity="1" fill-rule="nonzero"/></g></svg>